<svg width="20" height="16" viewBox="0 0 20 16" fill="none" xmlns="http://www.w3.org/2000/svg">
<path d="M16.9454 0.8982C14.5518 -0.733813 11.596 0.0277934 10.0003 1.89554C8.40454 0.0277934 5.44878 -0.74288 3.05516 0.8982C1.78582 1.76861 0.987945 3.23742 0.933545 4.78783C0.80661 8.30573 3.92557 11.1255 8.68561 15.4503L8.77628 15.5319C9.46535 16.1575 10.5262 16.1575 11.2152 15.5229L11.315 15.4322C16.075 11.1164 19.1849 8.29666 19.067 4.77877C19.0126 3.23742 18.2148 1.76861 16.9454 0.8982ZM10.091 14.0994L10.0003 14.19L9.90962 14.0994C5.59385 10.1916 2.74689 7.60759 2.74689 4.9873C2.74689 3.17395 4.1069 1.81394 5.92025 1.81394C7.31653 1.81394 8.67654 2.71155 9.15708 3.95369H10.8526C11.324 2.71155 12.684 1.81394 14.0803 1.81394C15.8937 1.81394 17.2537 3.17395 17.2537 4.9873C17.2537 7.60759 14.4067 10.1916 10.091 14.0994Z" fill="black"/>
</svg>
