<svg width="100" height="34" viewBox="0 0 100 34" fill="none" xmlns="http://www.w3.org/2000/svg">
<path d="M92.1048 32.8113C90.593 32.8113 89.1791 32.5453 87.8633 32.0133C86.5754 31.4814 85.4835 30.7395 84.5876 29.7876L87.0234 26.554C87.9193 27.3659 88.7452 27.9538 89.5011 28.3178C90.285 28.6537 90.9849 28.8217 91.6009 28.8217C92.0768 28.8217 92.4968 28.7797 92.8607 28.6957C93.2527 28.5837 93.5606 28.4298 93.7846 28.2338C94.0086 28.0098 94.1206 27.7298 94.1206 27.3939C94.1206 26.9179 93.9246 26.54 93.5326 26.26C93.1687 25.98 92.6927 25.7561 92.1048 25.5881C91.5169 25.3921 90.8869 25.1961 90.215 25.0001C88.5352 24.4682 87.3173 23.6983 86.5614 22.6904C85.8335 21.6545 85.4695 20.5346 85.4695 19.3308C85.4695 18.4069 85.7075 17.483 86.1835 16.5591C86.6874 15.6072 87.4713 14.8233 88.5352 14.2073C89.6271 13.5634 91.0269 13.2415 92.7347 13.2415C94.2746 13.2415 95.5764 13.3954 96.6403 13.7034C97.7042 14.0114 98.7121 14.5153 99.664 15.2152L97.4382 18.6588C96.9063 18.2389 96.3043 17.8889 95.6324 17.609C94.9885 17.301 94.3865 17.133 93.8266 17.105C93.3227 17.077 92.8887 17.133 92.5248 17.273C92.1888 17.413 91.9228 17.595 91.7268 17.8189C91.5309 18.0429 91.4329 18.2809 91.4329 18.5329C91.4049 19.0648 91.6009 19.4848 92.0208 19.7927C92.4688 20.1007 93.0287 20.3387 93.7006 20.5066C94.3725 20.6746 95.0305 20.8706 95.6744 21.0946C96.5703 21.3745 97.3402 21.7525 97.9841 22.2284C98.6281 22.7044 99.118 23.2783 99.454 23.9503C99.8179 24.5942 99.9999 25.3781 99.9999 26.302C99.9999 27.4219 99.706 28.4857 99.118 29.4936C98.5581 30.4735 97.6902 31.2714 96.5143 31.8874C95.3664 32.5033 93.8966 32.8113 92.1048 32.8113Z" fill="black"/>
<path d="M70.5363 14.0814L74.5679 23.5303L73.476 23.6143L77.0036 14.0814H82.715L74.4419 33.5252L68.5625 21.3465L63.1871 33.5252L54.8301 14.0814H60.5414L64.9929 24.2862L62.9772 23.9922L66.5048 16.1811L65.5389 14.0814H70.5363Z" fill="black"/>
<path d="M43.8658 32.9372C41.626 32.9372 39.7222 32.5173 38.1544 31.6774C36.6146 30.8375 35.4387 29.6756 34.6268 28.1918C33.8149 26.7079 33.4089 25.0001 33.4089 23.0684C33.4089 21.2206 33.8849 19.5548 34.8368 18.0709C35.7887 16.5871 37.0625 15.4112 38.6583 14.5433C40.2542 13.6474 42.032 13.1995 43.9918 13.1995C46.6235 13.1995 48.7792 13.9694 50.459 15.5092C52.1668 17.021 53.2727 19.2188 53.7767 22.1025L39.4983 26.638L38.1964 23.4463L48.5272 19.9607L47.3094 20.5066C47.0854 19.7787 46.6795 19.1488 46.0915 18.6169C45.5316 18.0569 44.6777 17.7769 43.5298 17.7769C42.6619 17.7769 41.892 17.9869 41.2201 18.4069C40.5761 18.7988 40.0722 19.3728 39.7082 20.1287C39.3723 20.8566 39.2043 21.7245 39.2043 22.7324C39.2043 23.8803 39.4143 24.8462 39.8342 25.6301C40.2542 26.386 40.8281 26.9599 41.556 27.3519C42.2839 27.7438 43.0959 27.9398 43.9918 27.9398C44.6357 27.9398 45.2516 27.8278 45.8395 27.6038C46.4555 27.3799 47.0574 27.0859 47.6453 26.7219L50.2491 31.0895C49.2692 31.6494 48.2053 32.0973 47.0574 32.4333C45.9375 32.7693 44.8737 32.9372 43.8658 32.9372Z" fill="#EE0000"/>
<path d="M27.6749 33.6931L4.24152 12.5275L6.04732 13.5354L6.17331 32.4333H0V0.306885H0.251972L23.1814 21.3885L21.8376 20.8006L21.7116 1.52475H27.8429V33.6931H27.6749Z" fill="black"/>
</svg>
